<?xml version="1.0" standalone="no"?><svg xmlns:xlink="http://www.w3.org/1999/xlink" xmlns="http://www.w3.org/2000/svg" viewBox="0 0 500 318.1880798509831" preserveAspectRatio="xMaxYMax slice"><g transform="scale(0.7486778349434897)"><rect x="0" y="0" width="667.8571428571429" height="425" fill="#ffffff"/><rect x="0" y="0" width="60.71" height="60.71" fill="#5274ff"/><polygon points="0,0 60.71,60.71 0,60.71" fill="#4368ff"/><rect x="60.714285714285715" y="0" width="60.714285714285715" height="60.714285714285715" fill="#ffffff"/><rect x="60.71" y="0" width="30.36" height="30.36" fill="#7ef7e3"/><polygon points="91.07,0 91.07,30.36 60.71,30.36" fill="#cbfcf4"/><rect x="91.07" y="0" width="30.36" height="30.36" fill="#a7faec"/><polygon points="121.42999999999999,0 121.42999999999999,30.36 91.07,30.36" fill="#f9fffe"/><rect x="60.71" y="30.36" width="30.36" height="30.36" fill="#38f3d4"/><polygon points="60.71,30.36 91.07,30.36 60.71,60.72" fill="#7893ff"/><rect x="91.07" y="30.36" width="30.36" height="30.36" fill="#2bf2d1"/><polygon points="91.07,30.36 121.42999999999999,60.72 91.07,60.72" fill="#51f4d9"/><rect x="121.43" y="0" width="60.71" height="60.71" fill="#87f8e5"/><polygon points="121.43,0 182.14000000000001,0 182.14000000000001,60.71" fill="#dbfdf7"/><rect x="182.14" y="0" width="60.71" height="60.71" fill="#6786ff"/><polygon points="242.85,0 242.85,60.71 182.14,60.71" fill="#61f5dd"/><rect x="242.86" y="0" width="60.71" height="60.71" fill="#c0fbf1"/><polygon points="242.86,0 303.57,0 303.57,60.71" fill="#30f2d2"/><rect x="303.57142857142856" y="0" width="60.714285714285715" height="60.714285714285715" fill="#ffffff"/><rect x="303.57" y="0" width="30.36" height="30.36" fill="#acfaed"/><polygon points="303.57,0 333.93,0 333.93,30.36" fill="#bafbf0"/><rect x="333.93" y="0" width="30.36" height="30.36" fill="#7d97ff"/><polygon points="333.93,0 364.29,0 364.29,30.36" fill="#72f6e1"/><rect x="303.57" y="30.36" width="30.36" height="30.36" fill="#adfaed"/><polygon points="303.57,30.36 333.93,30.36 333.93,60.72" fill="#9ef9ea"/><rect x="333.93" y="30.36" width="30.36" height="30.36" fill="#c9fcf3"/><polygon points="333.93,30.36 364.29,30.36 364.29,60.72" fill="#70f6e0"/><rect x="364.29" y="0" width="60.71" height="60.71" fill="#c3fbf2"/><polygon points="364.29,0 425,0 425,60.71" fill="#456bff"/><rect x="425" y="0" width="60.71" height="60.71" fill="#a9faec"/><polygon points="425,0 485.71,0 425,60.71" fill="#335cff"/><rect x="485.7142857142857" y="0" width="60.714285714285715" height="60.714285714285715" fill="#ffffff"/><rect x="485.71" y="0" width="30.36" height="30.36" fill="#5af5db"/><polygon points="485.71,0 516.0699999999999,0 485.71,30.36" fill="#15f1cc"/><rect x="516.07" y="0" width="30.36" height="30.36" fill="#e6ebff"/><polygon points="516.07,0 546.4300000000001,0 516.07,30.36" fill="#819bff"/><rect x="485.71" y="30.36" width="30.36" height="30.36" fill="#19f1cd"/><polygon points="485.71,30.36 516.0699999999999,30.36 485.71,60.72" fill="#47f4d7"/><rect x="516.07" y="30.36" width="30.36" height="30.36" fill="#5d7eff"/><polygon points="516.07,30.36 546.4300000000001,30.36 546.4300000000001,60.72" fill="#cefcf4"/><rect x="546.43" y="0" width="60.71" height="60.71" fill="#5577ff"/><polygon points="546.43,0 607.14,0 607.14,60.71" fill="#bdfbf1"/><rect x="607.1428571428571" y="0" width="60.714285714285715" height="60.714285714285715" fill="#ffffff"/><rect x="607.14" y="0" width="30.36" height="30.36" fill="#49f4d8"/><polygon points="607.14,0 637.5,30.36 607.14,30.36" fill="#89a1ff"/><rect x="637.5" y="0" width="30.36" height="30.36" fill="#e9fefa"/><polygon points="637.5,0 667.86,30.36 637.5,30.36" fill="#fcfdff"/><rect x="607.14" y="30.36" width="30.36" height="30.36" fill="#5e7eff"/><polygon points="607.14,30.36 637.5,30.36 637.5,60.72" fill="#9aaeff"/><rect x="637.5" y="30.36" width="30.36" height="30.36" fill="#8bf8e6"/><polygon points="637.5,30.36 667.86,30.36 637.5,60.72" fill="#88f8e5"/><rect x="0" y="60.714285714285715" width="60.714285714285715" height="60.714285714285715" fill="#ffffff"/><rect x="0" y="60.71" width="30.36" height="30.36" fill="#90a6ff"/><polygon points="0,60.71 30.36,60.71 30.36,91.07" fill="#829bff"/><rect x="30.36" y="60.71" width="30.36" height="30.36" fill="#feffff"/><polygon points="30.36,60.71 60.72,91.07 30.36,91.07" fill="#2ff2d2"/><rect x="0" y="91.07" width="30.36" height="30.36" fill="#93f8e8"/><polygon points="30.36,91.07 30.36,121.42999999999999 0,121.42999999999999" fill="#cefcf4"/><rect x="30.36" y="91.07" width="30.36" height="30.36" fill="#13f1cc"/><polygon points="60.72,91.07 60.72,121.42999999999999 30.36,121.42999999999999" fill="#4c70ff"/><rect x="60.71" y="60.71" width="60.71" height="60.71" fill="#c5fbf3"/><polygon points="60.71,60.71 121.42,121.42 60.71,121.42" fill="#e9fefa"/><rect x="121.43" y="60.71" width="60.71" height="60.71" fill="#c4d0ff"/><polygon points="121.43,60.71 182.14000000000001,121.42 121.43,121.42" fill="#345dff"/><rect x="182.14" y="60.71" width="60.71" height="60.71" fill="#f3f6ff"/><polygon points="242.85,60.71 242.85,121.42 182.14,121.42" fill="#23f2cf"/><rect x="242.86" y="60.71" width="60.71" height="60.71" fill="#6e8bff"/><polygon points="242.86,60.71 303.57,60.71 303.57,121.42" fill="#b4c3ff"/><rect x="303.57" y="60.71" width="60.71" height="60.71" fill="#8aa2ff"/><polygon points="364.28,60.71 364.28,121.42 303.57,121.42" fill="#6080ff"/><rect x="364.29" y="60.71" width="60.71" height="60.71" fill="#94a9ff"/><polygon points="364.29,60.71 425,60.71 364.29,121.42" fill="#9cf9ea"/><rect x="425" y="60.71" width="60.71" height="60.71" fill="#869eff"/><polygon points="485.71,60.71 485.71,121.42 425,121.42" fill="#38f3d4"/><rect x="485.71" y="60.71" width="60.71" height="60.71" fill="#b2c2ff"/><polygon points="485.71,60.71 546.42,60.71 546.42,121.42" fill="#c1fbf2"/><rect x="546.4285714285714" y="60.714285714285715" width="60.714285714285715" height="60.714285714285715" fill="#ffffff"/><rect x="546.43" y="60.71" width="30.36" height="30.36" fill="#b3faef"/><polygon points="546.43,60.71 576.79,60.71 576.79,91.07" fill="#a0f9eb"/><rect x="576.79" y="60.71" width="30.36" height="30.36" fill="#9ef9ea"/><polygon points="607.15,60.71 607.15,91.07 576.79,91.07" fill="#6f8cff"/><rect x="546.43" y="91.07" width="30.36" height="30.36" fill="#f6f8ff"/><polygon points="576.79,91.07 576.79,121.42999999999999 546.43,121.42999999999999" fill="#e3e9ff"/><rect x="576.79" y="91.07" width="30.36" height="30.36" fill="#7893ff"/><polygon points="576.79,91.07 607.15,91.07 576.79,121.42999999999999" fill="#9fb2ff"/><rect x="607.1428571428571" y="60.714285714285715" width="60.714285714285715" height="60.714285714285715" fill="#ffffff"/><rect x="607.14" y="60.71" width="30.36" height="30.36" fill="#b4c3ff"/><polygon points="607.14,60.71 637.5,60.71 637.5,91.07" fill="#b3c2ff"/><rect x="637.5" y="60.71" width="30.36" height="30.36" fill="#6685ff"/><polygon points="637.5,60.71 667.86,60.71 637.5,91.07" fill="#6ef6e0"/><rect x="607.14" y="91.07" width="30.36" height="30.36" fill="#0cf0ca"/><polygon points="607.14,91.07 637.5,91.07 637.5,121.42999999999999" fill="#b8c6ff"/><rect x="637.5" y="91.07" width="30.36" height="30.36" fill="#bdfbf1"/><polygon points="637.5,91.07 667.86,91.07 667.86,121.42999999999999" fill="#e8ecff"/><rect x="0" y="121.42857142857143" width="60.714285714285715" height="60.714285714285715" fill="#ffffff"/><rect x="0" y="121.43" width="30.36" height="30.36" fill="#d6deff"/><polygon points="0,121.43 30.36,151.79000000000002 0,151.79000000000002" fill="#70f6e0"/><rect x="30.36" y="121.43" width="30.36" height="30.36" fill="#6c89ff"/><polygon points="30.36,121.43 60.72,121.43 60.72,151.79000000000002" fill="#a7b9ff"/><rect x="0" y="151.79" width="30.36" height="30.36" fill="#ddfdf8"/><polygon points="0,151.79 30.36,151.79 0,182.14999999999998" fill="#a5b7ff"/><rect x="30.36" y="151.79" width="30.36" height="30.36" fill="#5678ff"/><polygon points="30.36,151.79 60.72,182.14999999999998 30.36,182.14999999999998" fill="#ebefff"/><rect x="60.71" y="121.43" width="60.71" height="60.71" fill="#5e7eff"/><polygon points="60.71,121.43 121.42,121.43 60.71,182.14000000000001" fill="#31f2d2"/><rect x="121.43" y="121.43" width="60.71" height="60.71" fill="#c4d0ff"/><polygon points="182.14000000000001,121.43 182.14000000000001,182.14000000000001 121.43,182.14000000000001" fill="#6080ff"/><rect x="182.14" y="121.43" width="60.71" height="60.71" fill="#91a7ff"/><polygon points="182.14,121.43 242.85,121.43 242.85,182.14000000000001" fill="#3860ff"/><rect x="242.85714285714286" y="121.42857142857143" width="60.714285714285715" height="60.714285714285715" fill="#ffffff"/><rect x="242.86" y="121.43" width="30.36" height="30.36" fill="#bdcaff"/><polygon points="242.86,121.43 273.22,121.43 273.22,151.79000000000002" fill="#74f7e1"/><rect x="273.21" y="121.43" width="30.36" height="30.36" fill="#cbd6ff"/><polygon points="273.21,121.43 303.57,151.79000000000002 273.21,151.79000000000002" fill="#f1fefc"/><rect x="242.86" y="151.79" width="30.36" height="30.36" fill="#bdcaff"/><polygon points="242.86,151.79 273.22,151.79 273.22,182.14999999999998" fill="#8ca3ff"/><rect x="273.21" y="151.79" width="30.36" height="30.36" fill="#59f5db"/><polygon points="303.57,151.79 303.57,182.14999999999998 273.21,182.14999999999998" fill="#e7fefa"/><rect x="303.57" y="121.43" width="60.71" height="60.71" fill="#62f5dd"/><polygon points="364.28,121.43 364.28,182.14000000000001 303.57,182.14000000000001" fill="#3f66ff"/><rect x="364.2857142857143" y="121.42857142857143" width="60.714285714285715" height="60.714285714285715" fill="#ffffff"/><rect x="364.29" y="121.43" width="30.36" height="30.36" fill="#446aff"/><polygon points="394.65000000000003,121.43 394.65000000000003,151.79000000000002 364.29,151.79000000000002" fill="#9aaeff"/><rect x="394.64" y="121.43" width="30.36" height="30.36" fill="#f8fffd"/><polygon points="394.64,121.43 425,151.79000000000002 394.64,151.79000000000002" fill="#4f72ff"/><rect x="364.29" y="151.79" width="30.36" height="30.36" fill="#a0f9ea"/><polygon points="364.29,151.79 394.65000000000003,182.14999999999998 364.29,182.14999999999998" fill="#58f5db"/><rect x="394.64" y="151.79" width="30.36" height="30.36" fill="#cafcf3"/><polygon points="394.64,151.79 425,182.14999999999998 394.64,182.14999999999998" fill="#dbfdf7"/><rect x="425" y="121.42857142857143" width="60.714285714285715" height="60.714285714285715" fill="#ffffff"/><rect x="425" y="121.43" width="30.36" height="30.36" fill="#ced7ff"/><polygon points="425,121.43 455.36,121.43 455.36,151.79000000000002" fill="#6c8aff"/><rect x="455.36" y="121.43" width="30.36" height="30.36" fill="#63f5dd"/><polygon points="455.36,121.43 485.72,121.43 455.36,151.79000000000002" fill="#ddfdf8"/><rect x="425" y="151.79" width="30.36" height="30.36" fill="#71f6e0"/><polygon points="425,151.79 455.36,151.79 455.36,182.14999999999998" fill="#486dff"/><rect x="455.36" y="151.79" width="30.36" height="30.36" fill="#affaee"/><polygon points="455.36,151.79 485.72,151.79 455.36,182.14999999999998" fill="#d1fcf5"/><rect x="485.71" y="121.43" width="60.71" height="60.71" fill="#5275ff"/><polygon points="546.42,121.43 546.42,182.14000000000001 485.71,182.14000000000001" fill="#91a7ff"/><rect x="546.43" y="121.43" width="60.71" height="60.71" fill="#65f6de"/><polygon points="546.43,121.43 607.14,182.14000000000001 546.43,182.14000000000001" fill="#cad5ff"/><rect x="607.14" y="121.43" width="60.71" height="60.71" fill="#38f3d4"/><polygon points="667.85,121.43 667.85,182.14000000000001 607.14,182.14000000000001" fill="#b7c5ff"/><rect x="0" y="182.14285714285714" width="60.714285714285715" height="60.714285714285715" fill="#ffffff"/><rect x="0" y="182.14" width="30.36" height="30.36" fill="#718dff"/><polygon points="0,182.14 30.36,182.14 30.36,212.5" fill="#e2e8ff"/><rect x="30.36" y="182.14" width="30.36" height="30.36" fill="#3e65ff"/><polygon points="30.36,182.14 60.72,212.5 30.36,212.5" fill="#e8edff"/><rect x="0" y="212.5" width="30.36" height="30.36" fill="#dae1ff"/><polygon points="0,212.5 30.36,212.5 30.36,242.86" fill="#f8f9ff"/><rect x="30.36" y="212.5" width="30.36" height="30.36" fill="#32f2d3"/><polygon points="30.36,212.5 60.72,212.5 60.72,242.86" fill="#92a8ff"/><rect x="60.714285714285715" y="182.14285714285714" width="60.714285714285715" height="60.714285714285715" fill="#ffffff"/><rect x="60.71" y="182.14" width="30.36" height="30.36" fill="#0ef0cb"/><polygon points="91.07,182.14 91.07,212.5 60.71,212.5" fill="#11f0cc"/><rect x="91.07" y="182.14" width="30.36" height="30.36" fill="#3ef3d5"/><polygon points="121.42999999999999,182.14 121.42999999999999,212.5 91.07,212.5" fill="#b0faee"/><rect x="60.71" y="212.5" width="30.36" height="30.36" fill="#a4b6ff"/><polygon points="60.71,212.5 91.07,212.5 60.71,242.86" fill="#fbfcff"/><rect x="91.07" y="212.5" width="30.36" height="30.36" fill="#dbfdf7"/><polygon points="91.07,212.5 121.42999999999999,242.86 91.07,242.86" fill="#cdfcf4"/><rect x="121.43" y="182.14" width="60.71" height="60.71" fill="#eafefb"/><polygon points="121.43,182.14 182.14000000000001,182.14 182.14000000000001,242.85" fill="#6d8bff"/><rect x="182.14285714285714" y="182.14285714285714" width="60.714285714285715" height="60.714285714285715" fill="#ffffff"/><rect x="182.14" y="182.14" width="30.36" height="30.36" fill="#70f6e0"/><polygon points="182.14,182.14 212.5,182.14 182.14,212.5" fill="#7af7e2"/><rect x="212.5" y="182.14" width="30.36" height="30.36" fill="#5d7eff"/><polygon points="242.86,182.14 242.86,212.5 212.5,212.5" fill="#5577ff"/><rect x="182.14" y="212.5" width="30.36" height="30.36" fill="#6886ff"/><polygon points="182.14,212.5 212.5,212.5 182.14,242.86" fill="#c8d3ff"/><rect x="212.5" y="212.5" width="30.36" height="30.36" fill="#a5b7ff"/><polygon points="212.5,212.5 242.86,212.5 242.86,242.86" fill="#40f3d6"/><rect x="242.85714285714286" y="182.14285714285714" width="60.714285714285715" height="60.714285714285715" fill="#ffffff"/><rect x="242.86" y="182.14" width="30.36" height="30.36" fill="#92f8e7"/><polygon points="242.86,182.14 273.22,182.14 242.86,212.5" fill="#738fff"/><rect x="273.21" y="182.14" width="30.36" height="30.36" fill="#ebefff"/><polygon points="273.21,182.14 303.57,182.14 273.21,212.5" fill="#3d64ff"/><rect x="242.86" y="212.5" width="30.36" height="30.36" fill="#d0daff"/><polygon points="242.86,212.5 273.22,212.5 273.22,242.86" fill="#34f3d3"/><rect x="273.21" y="212.5" width="30.36" height="30.36" fill="#f6f8ff"/><polygon points="273.21,212.5 303.57,212.5 303.57,242.86" fill="#dbfdf7"/><rect x="303.57142857142856" y="182.14285714285714" width="60.714285714285715" height="60.714285714285715" fill="#ffffff"/><rect x="303.57" y="182.14" width="30.36" height="30.36" fill="#21f1cf"/><polygon points="333.93,182.14 333.93,212.5 303.57,212.5" fill="#5a7bff"/><rect x="333.93" y="182.14" width="30.36" height="30.36" fill="#879fff"/><polygon points="333.93,182.14 364.29,182.14 364.29,212.5" fill="#e9eeff"/><rect x="303.57" y="212.5" width="30.36" height="30.36" fill="#849dff"/><polygon points="303.57,212.5 333.93,212.5 303.57,242.86" fill="#d4fcf6"/><rect x="333.93" y="212.5" width="30.36" height="30.36" fill="#4167ff"/><polygon points="333.93,212.5 364.29,242.86 333.93,242.86" fill="#456bff"/><rect x="364.29" y="182.14" width="60.71" height="60.71" fill="#fcfdff"/><polygon points="425,182.14 425,242.85 364.29,242.85" fill="#8cf8e6"/><rect x="425" y="182.14285714285714" width="60.714285714285715" height="60.714285714285715" fill="#ffffff"/><rect x="425" y="182.14" width="30.36" height="30.36" fill="#86f8e5"/><polygon points="425,182.14 455.36,182.14 425,212.5" fill="#9cf9ea"/><rect x="455.36" y="182.14" width="30.36" height="30.36" fill="#38f3d4"/><polygon points="455.36,182.14 485.72,182.14 485.72,212.5" fill="#2df2d2"/><rect x="425" y="212.5" width="30.36" height="30.36" fill="#6c89ff"/><polygon points="455.36,212.5 455.36,242.86 425,242.86" fill="#dde4ff"/><rect x="455.36" y="212.5" width="30.36" height="30.36" fill="#d2dbff"/><polygon points="485.72,212.5 485.72,242.86 455.36,242.86" fill="#c1fbf2"/><rect x="485.71" y="182.14" width="60.71" height="60.71" fill="#affaee"/><polygon points="485.71,182.14 546.42,182.14 546.42,242.85" fill="#4d70ff"/><rect x="546.4285714285714" y="182.14285714285714" width="60.714285714285715" height="60.714285714285715" fill="#ffffff"/><rect x="546.43" y="182.14" width="30.36" height="30.36" fill="#aabbff"/><polygon points="546.43,182.14 576.79,182.14 546.43,212.5" fill="#e8fefa"/><rect x="576.79" y="182.14" width="30.36" height="30.36" fill="#5ef5dc"/><polygon points="607.15,182.14 607.15,212.5 576.79,212.5" fill="#4ff4d9"/><rect x="546.43" y="212.5" width="30.36" height="30.36" fill="#1ff1cf"/><polygon points="576.79,212.5 576.79,242.86 546.43,242.86" fill="#6382ff"/><rect x="576.79" y="212.5" width="30.36" height="30.36" fill="#99aeff"/><polygon points="607.15,212.5 607.15,242.86 576.79,242.86" fill="#90f8e7"/><rect x="607.1428571428571" y="182.14285714285714" width="60.714285714285715" height="60.714285714285715" fill="#ffffff"/><rect x="607.14" y="182.14" width="30.36" height="30.36" fill="#6b89ff"/><polygon points="607.14,182.14 637.5,182.14 607.14,212.5" fill="#59f5db"/><rect x="637.5" y="182.14" width="30.36" height="30.36" fill="#93a9ff"/><polygon points="637.5,182.14 667.86,182.14 637.5,212.5" fill="#7e98ff"/><rect x="607.14" y="212.5" width="30.36" height="30.36" fill="#f8fffe"/><polygon points="607.14,212.5 637.5,242.86 607.14,242.86" fill="#3760ff"/><rect x="637.5" y="212.5" width="30.36" height="30.36" fill="#52f4da"/><polygon points="637.5,212.5 667.86,242.86 637.5,242.86" fill="#6ff6e0"/><rect x="0" y="242.86" width="60.71" height="60.71" fill="#feffff"/><polygon points="0,242.86 60.71,303.57 0,303.57" fill="#e9fefa"/><rect x="60.71" y="242.86" width="60.71" height="60.71" fill="#47f4d7"/><polygon points="60.71,242.86 121.42,242.86 60.71,303.57" fill="#9af9e9"/><rect x="121.43" y="242.86" width="60.71" height="60.71" fill="#e9eeff"/><polygon points="121.43,242.86 182.14000000000001,303.57 121.43,303.57" fill="#9df9ea"/><rect x="182.14285714285714" y="242.85714285714286" width="60.714285714285715" height="60.714285714285715" fill="#ffffff"/><rect x="182.14" y="242.86" width="30.36" height="30.36" fill="#65f6de"/><polygon points="212.5,242.86 212.5,273.22 182.14,273.22" fill="#f0f3ff"/><rect x="212.5" y="242.86" width="30.36" height="30.36" fill="#a1f9eb"/><polygon points="212.5,242.86 242.86,242.86 242.86,273.22" fill="#f0fefc"/><rect x="182.14" y="273.21" width="30.36" height="30.36" fill="#dcfdf7"/><polygon points="182.14,273.21 212.5,303.57 182.14,303.57" fill="#fcfffe"/><rect x="212.5" y="273.21" width="30.36" height="30.36" fill="#9cf9ea"/><polygon points="212.5,273.21 242.86,273.21 242.86,303.57" fill="#6af6df"/><rect x="242.86" y="242.86" width="60.71" height="60.71" fill="#eaeeff"/><polygon points="303.57,242.86 303.57,303.57 242.86,303.57" fill="#ebfefb"/><rect x="303.57142857142856" y="242.85714285714286" width="60.714285714285715" height="60.714285714285715" fill="#ffffff"/><rect x="303.57" y="242.86" width="30.36" height="30.36" fill="#a4f9eb"/><polygon points="303.57,242.86 333.93,242.86 303.57,273.22" fill="#7ff7e3"/><rect x="333.93" y="242.86" width="30.36" height="30.36" fill="#b1c1ff"/><polygon points="333.93,242.86 364.29,242.86 333.93,273.22" fill="#67f6de"/><rect x="303.57" y="273.21" width="30.36" height="30.36" fill="#97f9e8"/><polygon points="333.93,273.21 333.93,303.57 303.57,303.57" fill="#4b6fff"/><rect x="333.93" y="273.21" width="30.36" height="30.36" fill="#22f1cf"/><polygon points="333.93,273.21 364.29,273.21 333.93,303.57" fill="#52f4da"/><rect x="364.2857142857143" y="242.85714285714286" width="60.714285714285715" height="60.714285714285715" fill="#ffffff"/><rect x="364.29" y="242.86" width="30.36" height="30.36" fill="#e8edff"/><polygon points="364.29,242.86 394.65000000000003,242.86 364.29,273.22" fill="#1ef1ce"/><rect x="394.64" y="242.86" width="30.36" height="30.36" fill="#9ff9ea"/><polygon points="394.64,242.86 425,273.22 394.64,273.22" fill="#819aff"/><rect x="364.29" y="273.21" width="30.36" height="30.36" fill="#d3fcf6"/><polygon points="364.29,273.21 394.65000000000003,273.21 394.65000000000003,303.57" fill="#adfaed"/><rect x="394.64" y="273.21" width="30.36" height="30.36" fill="#c9fcf3"/><polygon points="394.64,273.21 425,273.21 394.64,303.57" fill="#7ef7e3"/><rect x="425" y="242.85714285714286" width="60.714285714285715" height="60.714285714285715" fill="#ffffff"/><rect x="425" y="242.86" width="30.36" height="30.36" fill="#4e72ff"/><polygon points="425,242.86 455.36,242.86 425,273.22" fill="#a4b6ff"/><rect x="455.36" y="242.86" width="30.36" height="30.36" fill="#f1f4ff"/><polygon points="455.36,242.86 485.72,273.22 455.36,273.22" fill="#27f2d0"/><rect x="425" y="273.21" width="30.36" height="30.36" fill="#f2f5ff"/><polygon points="425,273.21 455.36,273.21 455.36,303.57" fill="#ebefff"/><rect x="455.36" y="273.21" width="30.36" height="30.36" fill="#a0b3ff"/><polygon points="455.36,273.21 485.72,273.21 455.36,303.57" fill="#44f4d7"/><rect x="485.7142857142857" y="242.85714285714286" width="60.714285714285715" height="60.714285714285715" fill="#ffffff"/><rect x="485.71" y="242.86" width="30.36" height="30.36" fill="#bac8ff"/><polygon points="485.71,242.86 516.0699999999999,242.86 485.71,273.22" fill="#47f4d7"/><rect x="516.07" y="242.86" width="30.36" height="30.36" fill="#eefefb"/><polygon points="516.07,242.86 546.4300000000001,242.86 546.4300000000001,273.22" fill="#8ca3ff"/><rect x="485.71" y="273.21" width="30.36" height="30.36" fill="#7c96ff"/><polygon points="485.71,273.21 516.0699999999999,273.21 516.0699999999999,303.57" fill="#5a7bff"/><rect x="516.07" y="273.21" width="30.36" height="30.36" fill="#fdfeff"/><polygon points="546.4300000000001,273.21 546.4300000000001,303.57 516.07,303.57" fill="#ecf0ff"/><rect x="546.4285714285714" y="242.85714285714286" width="60.714285714285715" height="60.714285714285715" fill="#ffffff"/><rect x="546.43" y="242.86" width="30.36" height="30.36" fill="#71f6e0"/><polygon points="576.79,242.86 576.79,273.22 546.43,273.22" fill="#4066ff"/><rect x="576.79" y="242.86" width="30.36" height="30.36" fill="#c3cfff"/><polygon points="576.79,242.86 607.15,273.22 576.79,273.22" fill="#51f4d9"/><rect x="546.43" y="273.21" width="30.36" height="30.36" fill="#37f3d4"/><polygon points="546.43,273.21 576.79,303.57 546.43,303.57" fill="#bcfbf0"/><rect x="576.79" y="273.21" width="30.36" height="30.36" fill="#a5b7ff"/><polygon points="576.79,273.21 607.15,303.57 576.79,303.57" fill="#39f3d4"/><rect x="607.1428571428571" y="242.85714285714286" width="60.714285714285715" height="60.714285714285715" fill="#ffffff"/><rect x="607.14" y="242.86" width="30.36" height="30.36" fill="#9df9ea"/><polygon points="637.5,242.86 637.5,273.22 607.14,273.22" fill="#dfe5ff"/><rect x="637.5" y="242.86" width="30.36" height="30.36" fill="#7591ff"/><polygon points="637.5,242.86 667.86,242.86 637.5,273.22" fill="#b4c3ff"/><rect x="607.14" y="273.21" width="30.36" height="30.36" fill="#7591ff"/><polygon points="607.14,273.21 637.5,303.57 607.14,303.57" fill="#b3c2ff"/><rect x="637.5" y="273.21" width="30.36" height="30.36" fill="#c4d0ff"/><polygon points="637.5,273.21 667.86,273.21 667.86,303.57" fill="#23f2cf"/><rect x="0" y="303.57142857142856" width="60.714285714285715" height="60.714285714285715" fill="#ffffff"/><rect x="0" y="303.57" width="30.36" height="30.36" fill="#ffffff"/><polygon points="0,303.57 30.36,303.57 30.36,333.93" fill="#44f4d7"/><rect x="30.36" y="303.57" width="30.36" height="30.36" fill="#869eff"/><polygon points="30.36,303.57 60.72,333.93 30.36,333.93" fill="#b0faee"/><rect x="0" y="333.93" width="30.36" height="30.36" fill="#6af6df"/><polygon points="0,333.93 30.36,333.93 0,364.29" fill="#bffbf1"/><rect x="30.36" y="333.93" width="30.36" height="30.36" fill="#5577ff"/><polygon points="30.36,333.93 60.72,333.93 60.72,364.29" fill="#f7f9ff"/><rect x="60.714285714285715" y="303.57142857142856" width="60.714285714285715" height="60.714285714285715" fill="#ffffff"/><rect x="60.71" y="303.57" width="30.36" height="30.36" fill="#e9eeff"/><polygon points="60.71,303.57 91.07,303.57 91.07,333.93" fill="#94a9ff"/><rect x="91.07" y="303.57" width="30.36" height="30.36" fill="#9fb2ff"/><polygon points="91.07,303.57 121.42999999999999,333.93 91.07,333.93" fill="#31f2d2"/><rect x="60.71" y="333.93" width="30.36" height="30.36" fill="#d1daff"/><polygon points="60.71,333.93 91.07,364.29 60.71,364.29" fill="#40f3d6"/><rect x="91.07" y="333.93" width="30.36" height="30.36" fill="#89f8e5"/><polygon points="91.07,333.93 121.42999999999999,333.93 121.42999999999999,364.29" fill="#69f6df"/><rect x="121.43" y="303.57" width="60.71" height="60.71" fill="#5ef5dc"/><polygon points="121.43,303.57 182.14000000000001,303.57 121.43,364.28" fill="#edf1ff"/><rect x="182.14285714285714" y="303.57142857142856" width="60.714285714285715" height="60.714285714285715" fill="#ffffff"/><rect x="182.14" y="303.57" width="30.36" height="30.36" fill="#68f6de"/><polygon points="212.5,303.57 212.5,333.93 182.14,333.93" fill="#375fff"/><rect x="212.5" y="303.57" width="30.36" height="30.36" fill="#f5fefd"/><polygon points="212.5,303.57 242.86,333.93 212.5,333.93" fill="#d1daff"/><rect x="182.14" y="333.93" width="30.36" height="30.36" fill="#22f1cf"/><polygon points="212.5,333.93 212.5,364.29 182.14,364.29" fill="#3ef3d5"/><rect x="212.5" y="333.93" width="30.36" height="30.36" fill="#4f72ff"/><polygon points="212.5,333.93 242.86,364.29 212.5,364.29" fill="#7df7e3"/><rect x="242.86" y="303.57" width="60.71" height="60.71" fill="#0ef0cb"/><polygon points="242.86,303.57 303.57,303.57 303.57,364.28" fill="#5073ff"/><rect x="303.57142857142856" y="303.57142857142856" width="60.714285714285715" height="60.714285714285715" fill="#ffffff"/><rect x="303.57" y="303.57" width="30.36" height="30.36" fill="#4469ff"/><polygon points="303.57,303.57 333.93,333.93 303.57,333.93" fill="#e7fefa"/><rect x="333.93" y="303.57" width="30.36" height="30.36" fill="#5cf5dc"/><polygon points="364.29,303.57 364.29,333.93 333.93,333.93" fill="#8fa6ff"/><rect x="303.57" y="333.93" width="30.36" height="30.36" fill="#28f2d1"/><polygon points="303.57,333.93 333.93,364.29 303.57,364.29" fill="#819aff"/><rect x="333.93" y="333.93" width="30.36" height="30.36" fill="#99f9e9"/><polygon points="364.29,333.93 364.29,364.29 333.93,364.29" fill="#65f6de"/><rect x="364.2857142857143" y="303.57142857142856" width="60.714285714285715" height="60.714285714285715" fill="#ffffff"/><rect x="364.29" y="303.57" width="30.36" height="30.36" fill="#c4d0ff"/><polygon points="394.65000000000003,303.57 394.65000000000003,333.93 364.29,333.93" fill="#d4dcff"/><rect x="394.64" y="303.57" width="30.36" height="30.36" fill="#f5f7ff"/><polygon points="394.64,303.57 425,303.57 394.64,333.93" fill="#e4fdf9"/><rect x="364.29" y="333.93" width="30.36" height="30.36" fill="#d5deff"/><polygon points="364.29,333.93 394.65000000000003,333.93 394.65000000000003,364.29" fill="#ebefff"/><rect x="394.64" y="333.93" width="30.36" height="30.36" fill="#51f4d9"/><polygon points="394.64,333.93 425,333.93 394.64,364.29" fill="#a0b3ff"/><rect x="425" y="303.57142857142856" width="60.714285714285715" height="60.714285714285715" fill="#ffffff"/><rect x="425" y="303.57" width="30.36" height="30.36" fill="#5b7cff"/><polygon points="425,303.57 455.36,303.57 455.36,333.93" fill="#6af6df"/><rect x="455.36" y="303.57" width="30.36" height="30.36" fill="#4df4d9"/><polygon points="455.36,303.57 485.72,333.93 455.36,333.93" fill="#5bf5dc"/><rect x="425" y="333.93" width="30.36" height="30.36" fill="#9ff9ea"/><polygon points="425,333.93 455.36,364.29 425,364.29" fill="#adbdff"/><rect x="455.36" y="333.93" width="30.36" height="30.36" fill="#eef2ff"/><polygon points="455.36,333.93 485.72,364.29 455.36,364.29" fill="#6e8bff"/><rect x="485.7142857142857" y="303.57142857142856" width="60.714285714285715" height="60.714285714285715" fill="#ffffff"/><rect x="485.71" y="303.57" width="30.36" height="30.36" fill="#6bf6df"/><polygon points="485.71,303.57 516.0699999999999,333.93 485.71,333.93" fill="#b8fbf0"/><rect x="516.07" y="303.57" width="30.36" height="30.36" fill="#73f6e1"/><polygon points="516.07,303.57 546.4300000000001,333.93 516.07,333.93" fill="#f6fefd"/><rect x="485.71" y="333.93" width="30.36" height="30.36" fill="#6886ff"/><polygon points="485.71,333.93 516.0699999999999,333.93 485.71,364.29" fill="#7ff7e3"/><rect x="516.07" y="333.93" width="30.36" height="30.36" fill="#bac8ff"/><polygon points="516.07,333.93 546.4300000000001,333.93 516.07,364.29" fill="#c3cfff"/><rect x="546.4285714285714" y="303.57142857142856" width="60.714285714285715" height="60.714285714285715" fill="#ffffff"/><rect x="546.43" y="303.57" width="30.36" height="30.36" fill="#e7ecff"/><polygon points="546.43,303.57 576.79,303.57 576.79,333.93" fill="#6af6df"/><rect x="576.79" y="303.57" width="30.36" height="30.36" fill="#0ef0cb"/><polygon points="607.15,303.57 607.15,333.93 576.79,333.93" fill="#c5d1ff"/><rect x="546.43" y="333.93" width="30.36" height="30.36" fill="#8af8e6"/><polygon points="546.43,333.93 576.79,333.93 576.79,364.29" fill="#feffff"/><rect x="576.79" y="333.93" width="30.36" height="30.36" fill="#9df9ea"/><polygon points="576.79,333.93 607.15,333.93 576.79,364.29" fill="#d3dcff"/><rect x="607.1428571428571" y="303.57142857142856" width="60.714285714285715" height="60.714285714285715" fill="#ffffff"/><rect x="607.14" y="303.57" width="30.36" height="30.36" fill="#46f4d7"/><polygon points="607.14,303.57 637.5,333.93 607.14,333.93" fill="#f1fefc"/><rect x="637.5" y="303.57" width="30.36" height="30.36" fill="#dffdf8"/><polygon points="637.5,303.57 667.86,303.57 667.86,333.93" fill="#6584ff"/><rect x="607.14" y="333.93" width="30.36" height="30.36" fill="#1ff1cf"/><polygon points="607.14,333.93 637.5,364.29 607.14,364.29" fill="#dee5ff"/><rect x="637.5" y="333.93" width="30.36" height="30.36" fill="#5577ff"/><polygon points="637.5,333.93 667.86,333.93 637.5,364.29" fill="#5174ff"/><rect x="0" y="364.29" width="60.71" height="60.71" fill="#6080ff"/><polygon points="0,364.29 60.71,425 0,425" fill="#dde4ff"/><rect x="60.714285714285715" y="364.2857142857143" width="60.714285714285715" height="60.714285714285715" fill="#ffffff"/><rect x="60.71" y="364.29" width="30.36" height="30.36" fill="#6ff6e0"/><polygon points="60.71,364.29 91.07,364.29 60.71,394.65000000000003" fill="#f5f7ff"/><rect x="91.07" y="364.29" width="30.36" height="30.36" fill="#99aeff"/><polygon points="91.07,364.29 121.42999999999999,394.65000000000003 91.07,394.65000000000003" fill="#2af2d1"/><rect x="60.71" y="394.64" width="30.36" height="30.36" fill="#38f3d4"/><polygon points="60.71,394.64 91.07,394.64 60.71,425" fill="#d1fcf5"/><rect x="91.07" y="394.64" width="30.36" height="30.36" fill="#ddfdf8"/><polygon points="91.07,394.64 121.42999999999999,394.64 121.42999999999999,425" fill="#f0f3ff"/><rect x="121.42857142857143" y="364.2857142857143" width="60.714285714285715" height="60.714285714285715" fill="#ffffff"/><rect x="121.43" y="364.29" width="30.36" height="30.36" fill="#88f8e5"/><polygon points="151.79000000000002,364.29 151.79000000000002,394.65000000000003 121.43,394.65000000000003" fill="#e2e8ff"/><rect x="151.79" y="364.29" width="30.36" height="30.36" fill="#6b89ff"/><polygon points="151.79,364.29 182.14999999999998,394.65000000000003 151.79,394.65000000000003" fill="#cfd8ff"/><rect x="121.43" y="394.64" width="30.36" height="30.36" fill="#6685ff"/><polygon points="121.43,394.64 151.79000000000002,425 121.43,425" fill="#12f1cc"/><rect x="151.79" y="394.64" width="30.36" height="30.36" fill="#839cff"/><polygon points="151.79,394.64 182.14999999999998,394.64 182.14999999999998,425" fill="#5d7eff"/><rect x="182.14285714285714" y="364.2857142857143" width="60.714285714285715" height="60.714285714285715" fill="#ffffff"/><rect x="182.14" y="364.29" width="30.36" height="30.36" fill="#8fa5ff"/><polygon points="182.14,364.29 212.5,364.29 182.14,394.65000000000003" fill="#22f1cf"/><rect x="212.5" y="364.29" width="30.36" height="30.36" fill="#c7d2ff"/><polygon points="212.5,364.29 242.86,364.29 212.5,394.65000000000003" fill="#ebefff"/><rect x="182.14" y="394.64" width="30.36" height="30.36" fill="#69f6de"/><polygon points="182.14,394.64 212.5,394.64 212.5,425" fill="#76f7e1"/><rect x="212.5" y="394.64" width="30.36" height="30.36" fill="#cbfcf4"/><polygon points="212.5,394.64 242.86,394.64 242.86,425" fill="#b6fbef"/><rect x="242.85714285714286" y="364.2857142857143" width="60.714285714285715" height="60.714285714285715" fill="#ffffff"/><rect x="242.86" y="364.29" width="30.36" height="30.36" fill="#4ff4d9"/><polygon points="273.22,364.29 273.22,394.65000000000003 242.86,394.65000000000003" fill="#b2faee"/><rect x="273.21" y="364.29" width="30.36" height="30.36" fill="#33f3d3"/><polygon points="273.21,364.29 303.57,394.65000000000003 273.21,394.65000000000003" fill="#91a7ff"/><rect x="242.86" y="394.64" width="30.36" height="30.36" fill="#1ef1ce"/><polygon points="242.86,394.64 273.22,394.64 273.22,425" fill="#36f3d3"/><rect x="273.21" y="394.64" width="30.36" height="30.36" fill="#96f9e8"/><polygon points="303.57,394.64 303.57,425 273.21,425" fill="#91a7ff"/><rect x="303.57142857142856" y="364.2857142857143" width="60.714285714285715" height="60.714285714285715" fill="#ffffff"/><rect x="303.57" y="364.29" width="30.36" height="30.36" fill="#91f8e7"/><polygon points="303.57,364.29 333.93,364.29 303.57,394.65000000000003" fill="#4df4d8"/><rect x="333.93" y="364.29" width="30.36" height="30.36" fill="#32f2d3"/><polygon points="364.29,364.29 364.29,394.65000000000003 333.93,394.65000000000003" fill="#6281ff"/><rect x="303.57" y="394.64" width="30.36" height="30.36" fill="#adbeff"/><polygon points="303.57,394.64 333.93,394.64 303.57,425" fill="#3af3d4"/><rect x="333.93" y="394.64" width="30.36" height="30.36" fill="#e1fdf8"/><polygon points="333.93,394.64 364.29,394.64 333.93,425" fill="#37f3d4"/><rect x="364.2857142857143" y="364.2857142857143" width="60.714285714285715" height="60.714285714285715" fill="#ffffff"/><rect x="364.29" y="364.29" width="30.36" height="30.36" fill="#bac8ff"/><polygon points="364.29,364.29 394.65000000000003,364.29 394.65000000000003,394.65000000000003" fill="#d9e0ff"/><rect x="394.64" y="364.29" width="30.36" height="30.36" fill="#6e8bff"/><polygon points="394.64,364.29 425,394.65000000000003 394.64,394.65000000000003" fill="#51f4d9"/><rect x="364.29" y="394.64" width="30.36" height="30.36" fill="#53f4da"/><polygon points="394.65000000000003,394.64 394.65000000000003,425 364.29,425" fill="#adbeff"/><rect x="394.64" y="394.64" width="30.36" height="30.36" fill="#6f8cff"/><polygon points="394.64,394.64 425,425 394.64,425" fill="#34f3d3"/><rect x="425" y="364.2857142857143" width="60.714285714285715" height="60.714285714285715" fill="#ffffff"/><rect x="425" y="364.29" width="30.36" height="30.36" fill="#32f2d3"/><polygon points="455.36,364.29 455.36,394.65000000000003 425,394.65000000000003" fill="#30f2d2"/><rect x="455.36" y="364.29" width="30.36" height="30.36" fill="#e4fdf9"/><polygon points="455.36,364.29 485.72,364.29 455.36,394.65000000000003" fill="#6df6df"/><rect x="425" y="394.64" width="30.36" height="30.36" fill="#49f4d8"/><polygon points="455.36,394.64 455.36,425 425,425" fill="#5d7dff"/><rect x="455.36" y="394.64" width="30.36" height="30.36" fill="#22f1cf"/><polygon points="455.36,394.64 485.72,425 455.36,425" fill="#effefc"/><rect x="485.7142857142857" y="364.2857142857143" width="60.714285714285715" height="60.714285714285715" fill="#ffffff"/><rect x="485.71" y="364.29" width="30.36" height="30.36" fill="#c8fcf3"/><polygon points="485.71,364.29 516.0699999999999,364.29 485.71,394.65000000000003" fill="#1af1ce"/><rect x="516.07" y="364.29" width="30.36" height="30.36" fill="#aebeff"/><polygon points="516.07,364.29 546.4300000000001,364.29 546.4300000000001,394.65000000000003" fill="#f9faff"/><rect x="485.71" y="394.64" width="30.36" height="30.36" fill="#3bf3d5"/><polygon points="485.71,394.64 516.0699999999999,394.64 516.0699999999999,425" fill="#e6fdfa"/><rect x="516.07" y="394.64" width="30.36" height="30.36" fill="#84f7e4"/><polygon points="516.07,394.64 546.4300000000001,394.64 546.4300000000001,425" fill="#3b63ff"/><rect x="546.43" y="364.29" width="60.71" height="60.71" fill="#d4ddff"/><polygon points="546.43,364.29 607.14,425 546.43,425" fill="#6c89ff"/><rect x="607.14" y="364.29" width="60.71" height="60.71" fill="#4bf4d8"/><polygon points="607.14,364.29 667.85,364.29 667.85,425" fill="#fafffe"/></g></svg>