<?xml version="1.0" standalone="no"?><svg xmlns:xlink="http://www.w3.org/1999/xlink" xmlns="http://www.w3.org/2000/svg" viewBox="0 0 1000 636.3761597019662" preserveAspectRatio="xMaxYMax slice"><g transform="scale(1.4973556698869794)"><rect x="0" y="0" width="667.8571428571429" height="425" fill="#7d7d7d"/><rect x="0" y="0" width="60.71" height="60.71" fill="#57bec0"/><g transform="translate(0,0) scale(3.0355) rotate(0)"><path d="M10 0H20L0 20V10L10 0Z" fill="#768989"/><path d="M20 10V20H10L20 10Z" fill="#768989"/></g><rect x="60.71" y="0" width="60.71" height="60.71" fill="#7f8c8a"/><polygon points="60.71,0 121.42,60.71 60.71,60.71" fill="#7d8080"/><rect x="121.43" y="0" width="60.71" height="60.71" fill="#5ab9ba"/><g transform="translate(121.43,0) scale(3.0355) rotate(0)"><path d="M10 0H20L0 20V10L10 0Z" fill="#7e8382"/><path d="M20 10V20H10L20 10Z" fill="#7e8382"/></g><rect x="182.14" y="0" width="60.71" height="60.71" fill="#82a49e"/><polygon points="182.14,0 242.85,60.71 182.14,60.71" fill="#7c7e7e"/><rect x="242.86" y="0" width="60.71" height="60.71" fill="#5bb8ba"/><polygon points="242.86,0 303.57,0 242.86,60.71" fill="#6c9b9c"/><rect x="303.57" y="0" width="60.71" height="60.71" fill="#41e4e6"/><g transform="translate(303.57,0) scale(3.0355) rotate(0)"><path d="M10 0H20L0 20V10L10 0Z" fill="#86bfb6"/><path d="M20 10V20H10L20 10Z" fill="#86bfb6"/></g><rect x="364.29" y="0" width="60.71" height="60.71" fill="#809692"/><g transform="translate(364.29,0) scale(3.0355) rotate(0)"><path d="M10 0H20L0 20V10L10 0Z" fill="#84b2ab"/><path d="M20 10V20H10L20 10Z" fill="#84b2ab"/></g><rect x="425" y="0" width="60.71" height="60.71" fill="#7f8e8c"/><g transform="translate(425,0) scale(3.0355) rotate(0)"><path d="M10 0H20L0 20V10L10 0Z" fill="#8ce7d8"/><path d="M20 10V20H10L20 10Z" fill="#8ce7d8"/></g><rect x="485.71" y="0" width="60.71" height="60.71" fill="#89d3c7"/><polygon points="546.42,0 546.42,60.71 485.71,60.71" fill="#84ada6"/><rect x="546.43" y="0" width="60.71" height="60.71" fill="#46dcde"/><polygon points="607.14,0 607.14,60.71 546.43,60.71" fill="#58bcbe"/><rect x="607.14" y="0" width="60.71" height="60.71" fill="#7f8e8c"/><polygon points="607.14,0 667.85,0 667.85,60.71" fill="#87c3b9"/><rect x="0" y="60.71" width="60.71" height="60.71" fill="#8adbce"/><g transform="translate(0,60.71) scale(3.0355) rotate(0)"><path d="M10 0H20L0 20V10L10 0Z" fill="#87c2b8"/><path d="M20 10V20H10L20 10Z" fill="#87c2b8"/></g><rect x="60.71" y="60.71" width="60.71" height="60.71" fill="#61aeaf"/><g transform="translate(60.71,60.71) scale(3.0355) rotate(0)"><path d="M10 0H20L0 20V10L10 0Z" fill="#38f4f7"/><path d="M20 10V20H10L20 10Z" fill="#38f4f7"/></g><rect x="121.43" y="60.71" width="60.71" height="60.71" fill="#7e8685"/><polygon points="121.43,60.71 182.14000000000001,60.71 182.14000000000001,121.42" fill="#53c5c7"/><rect x="182.14" y="60.71" width="60.71" height="60.71" fill="#7d7e7e"/><polygon points="242.85,60.71 242.85,121.42 182.14,121.42" fill="#64a8a9"/><rect x="242.86" y="60.71" width="60.71" height="60.71" fill="#84b1aa"/><polygon points="303.57,60.71 303.57,121.42 242.86,121.42" fill="#89d6ca"/><rect x="303.57" y="60.71" width="60.71" height="60.71" fill="#7f8a88"/><g transform="translate(303.57,60.71) scale(3.0355) rotate(0)"><path d="M10 0H20L0 20V10L10 0Z" fill="#768989"/><path d="M20 10V20H10L20 10Z" fill="#768989"/></g><rect x="364.29" y="60.71" width="60.71" height="60.71" fill="#83aba5"/><polygon points="364.29,60.71 425,60.71 364.29,121.42" fill="#788686"/><rect x="425" y="60.71" width="60.71" height="60.71" fill="#6f9495"/><g transform="translate(425,60.71) scale(3.0355) rotate(0)"><path d="M10 0H20L0 20V10L10 0Z" fill="#36f7fa"/><path d="M20 10V20H10L20 10Z" fill="#36f7fa"/></g><rect x="485.71" y="60.71" width="60.71" height="60.71" fill="#88cec3"/><g transform="translate(485.71,60.71) scale(3.0355) rotate(0)"><path d="M10 0H20L0 20V10L10 0Z" fill="#88cec3"/><path d="M20 10V20H10L20 10Z" fill="#88cec3"/></g><rect x="546.43" y="60.71" width="60.71" height="60.71" fill="#3beef1"/><polygon points="546.43,60.71 607.14,60.71 546.43,121.42" fill="#3af0f3"/><rect x="607.14" y="60.71" width="60.71" height="60.71" fill="#3cedef"/><polygon points="607.14,60.71 667.85,60.71 667.85,121.42" fill="#89d1c5"/><rect x="0" y="121.43" width="60.71" height="60.71" fill="#7e8785"/><polygon points="0,121.43 60.71,182.14000000000001 0,182.14000000000001" fill="#7d7e7e"/><rect x="60.71" y="121.43" width="60.71" height="60.71" fill="#69a0a1"/><polygon points="60.71,121.43 121.42,182.14000000000001 60.71,182.14000000000001" fill="#49d7d9"/><rect x="121.43" y="121.43" width="60.71" height="60.71" fill="#8ce6d7"/><polygon points="182.14000000000001,121.43 182.14000000000001,182.14000000000001 121.43,182.14000000000001" fill="#3fe8ea"/><rect x="182.14" y="121.43" width="60.71" height="60.71" fill="#809491"/><g transform="translate(182.14,121.43) scale(3.0355) rotate(0)"><path d="M10 0H20L0 20V10L10 0Z" fill="#86bdb4"/><path d="M20 10V20H10L20 10Z" fill="#86bdb4"/></g><rect x="242.86" y="121.43" width="60.71" height="60.71" fill="#8ad8cb"/><polygon points="303.57,121.43 303.57,182.14000000000001 242.86,182.14000000000001" fill="#788686"/><rect x="303.57" y="121.43" width="60.71" height="60.71" fill="#85b8b0"/><g transform="translate(303.57,121.43) scale(3.0355) rotate(0)"><path d="M10 0H20L0 20V10L10 0Z" fill="#7f8d8a"/><path d="M20 10V20H10L20 10Z" fill="#7f8d8a"/></g><rect x="364.29" y="121.43" width="60.71" height="60.71" fill="#8be1d3"/><polygon points="364.29,121.43 425,121.43 364.29,182.14000000000001" fill="#5bb7b8"/><rect x="425" y="121.43" width="60.71" height="60.71" fill="#59babc"/><g transform="translate(425,121.43) scale(3.0355) rotate(0)"><path d="M10 0H20L0 20V10L10 0Z" fill="#57bec0"/><path d="M20 10V20H10L20 10Z" fill="#57bec0"/></g><rect x="485.71" y="121.43" width="60.71" height="60.71" fill="#819c97"/><polygon points="485.71,121.43 546.42,121.43 485.71,182.14000000000001" fill="#8addd0"/><rect x="546.43" y="121.43" width="60.71" height="60.71" fill="#5bb7b8"/><g transform="translate(546.43,121.43) scale(3.0355) rotate(0)"><path d="M10 0H20L0 20V10L10 0Z" fill="#89d3c7"/><path d="M20 10V20H10L20 10Z" fill="#89d3c7"/></g><rect x="607.14" y="121.43" width="60.71" height="60.71" fill="#809390"/><g transform="translate(607.14,121.43) scale(3.0355) rotate(0)"><path d="M10 0H20L0 20V10L10 0Z" fill="#8ad9cc"/><path d="M20 10V20H10L20 10Z" fill="#8ad9cc"/></g><rect x="0" y="182.14" width="60.71" height="60.71" fill="#52c7c9"/><g transform="translate(0,182.14) scale(3.0355) rotate(0)"><path d="M10 0H20L0 20V10L10 0Z" fill="#87c3b9"/><path d="M20 10V20H10L20 10Z" fill="#87c3b9"/></g><rect x="60.71" y="182.14" width="60.71" height="60.71" fill="#758a8b"/><polygon points="60.71,182.14 121.42,182.14 60.71,242.85" fill="#819693"/><rect x="121.43" y="182.14" width="60.71" height="60.71" fill="#809592"/><polygon points="121.43,182.14 182.14000000000001,242.85 121.43,242.85" fill="#45dddf"/><rect x="182.14" y="182.14" width="60.71" height="60.71" fill="#7f8e8b"/><polygon points="182.14,182.14 242.85,182.14 242.85,242.85" fill="#4ad4d6"/><rect x="242.86" y="182.14" width="60.71" height="60.71" fill="#86bdb4"/><g transform="translate(242.86,182.14) scale(3.0355) rotate(0)"><path d="M10 0H20L0 20V10L10 0Z" fill="#84b1aa"/><path d="M20 10V20H10L20 10Z" fill="#84b1aa"/></g><rect x="303.57" y="182.14" width="60.71" height="60.71" fill="#7f8c8a"/><polygon points="303.57,182.14 364.28,242.85 303.57,242.85" fill="#798484"/><rect x="364.29" y="182.14" width="60.71" height="60.71" fill="#85b4ac"/><g transform="translate(364.29,182.14) scale(3.0355) rotate(0)"><path d="M10 0H20L0 20V10L10 0Z" fill="#68a1a2"/><path d="M20 10V20H10L20 10Z" fill="#68a1a2"/></g><rect x="425" y="182.14" width="60.71" height="60.71" fill="#58bdbe"/><polygon points="485.71,182.14 485.71,242.85 425,242.85" fill="#87c2b8"/><rect x="485.71" y="182.14" width="60.71" height="60.71" fill="#53c5c7"/><polygon points="485.71,182.14 546.42,242.85 485.71,242.85" fill="#86bfb6"/><rect x="546.43" y="182.14" width="60.71" height="60.71" fill="#7e8886"/><polygon points="546.43,182.14 607.14,182.14 607.14,242.85" fill="#88cdc2"/><rect x="607.14" y="182.14" width="60.71" height="60.71" fill="#86bfb6"/><g transform="translate(607.14,182.14) scale(3.0355) rotate(0)"><path d="M10 0H20L0 20V10L10 0Z" fill="#85b4ac"/><path d="M20 10V20H10L20 10Z" fill="#85b4ac"/></g><rect x="0" y="242.86" width="60.71" height="60.71" fill="#5ab9bb"/><g transform="translate(0,242.86) scale(3.0355) rotate(0)"><path d="M10 0H20L0 20V10L10 0Z" fill="#50cacc"/><path d="M20 10V20H10L20 10Z" fill="#50cacc"/></g><rect x="60.71" y="242.86" width="60.71" height="60.71" fill="#89d3c7"/><polygon points="60.71,242.86 121.42,242.86 60.71,303.57" fill="#44dfe1"/><rect x="121.43" y="242.86" width="60.71" height="60.71" fill="#85b4ad"/><polygon points="121.43,242.86 182.14000000000001,242.86 121.43,303.57" fill="#798484"/><rect x="182.14" y="242.86" width="60.71" height="60.71" fill="#8ad7ca"/><polygon points="182.14,242.86 242.85,303.57 182.14,303.57" fill="#84aca6"/><rect x="242.86" y="242.86" width="60.71" height="60.71" fill="#47dadc"/><g transform="translate(242.86,242.86) scale(3.0355) rotate(0)"><path d="M10 0H20L0 20V10L10 0Z" fill="#7f8e8c"/><path d="M20 10V20H10L20 10Z" fill="#7f8e8c"/></g><rect x="303.57" y="242.86" width="60.71" height="60.71" fill="#7c7f7f"/><polygon points="303.57,242.86 364.28,303.57 303.57,303.57" fill="#89d3c7"/><rect x="364.29" y="242.86" width="60.71" height="60.71" fill="#8ce7d8"/><g transform="translate(364.29,242.86) scale(3.0355) rotate(0)"><path d="M10 0H20L0 20V10L10 0Z" fill="#49d7d9"/><path d="M20 10V20H10L20 10Z" fill="#49d7d9"/></g><rect x="425" y="242.86" width="60.71" height="60.71" fill="#3beff2"/><polygon points="425,242.86 485.71,303.57 425,303.57" fill="#7f8886"/><rect x="485.71" y="242.86" width="60.71" height="60.71" fill="#43e0e2"/><g transform="translate(485.71,242.86) scale(3.0355) rotate(0)"><path d="M10 0H20L0 20V10L10 0Z" fill="#84aea7"/><path d="M20 10V20H10L20 10Z" fill="#84aea7"/></g><rect x="546.43" y="242.86" width="60.71" height="60.71" fill="#6b9b9c"/><g transform="translate(546.43,242.86) scale(3.0355) rotate(0)"><path d="M10 0H20L0 20V10L10 0Z" fill="#83aaa3"/><path d="M20 10V20H10L20 10Z" fill="#83aaa3"/></g><rect x="607.14" y="242.86" width="60.71" height="60.71" fill="#34fafd"/><g transform="translate(607.14,242.86) scale(3.0355) rotate(0)"><path d="M10 0H20L0 20V10L10 0Z" fill="#5db3b5"/><path d="M20 10V20H10L20 10Z" fill="#5db3b5"/></g><rect x="0" y="303.57" width="60.71" height="60.71" fill="#50cacc"/><polygon points="0,303.57 60.71,303.57 60.71,364.28" fill="#87c1b7"/><rect x="60.71" y="303.57" width="60.71" height="60.71" fill="#7d807f"/><polygon points="121.42,303.57 121.42,364.28 60.71,364.28" fill="#50cacc"/><rect x="121.43" y="303.57" width="60.71" height="60.71" fill="#6f9696"/><polygon points="121.43,303.57 182.14000000000001,364.28 121.43,364.28" fill="#7f8887"/><rect x="182.14" y="303.57" width="60.71" height="60.71" fill="#89d4c8"/><g transform="translate(182.14,303.57) scale(3.0355) rotate(0)"><path d="M10 0H20L0 20V10L10 0Z" fill="#699f9f"/><path d="M20 10V20H10L20 10Z" fill="#699f9f"/></g><rect x="242.86" y="303.57" width="60.71" height="60.71" fill="#47dadc"/><g transform="translate(242.86,303.57) scale(3.0355) rotate(0)"><path d="M10 0H20L0 20V10L10 0Z" fill="#6a9e9e"/><path d="M20 10V20H10L20 10Z" fill="#6a9e9e"/></g><rect x="303.57" y="303.57" width="60.71" height="60.71" fill="#7d807f"/><polygon points="303.57,303.57 364.28,303.57 303.57,364.28" fill="#51c9cb"/><rect x="364.29" y="303.57" width="60.71" height="60.71" fill="#7e8483"/><polygon points="364.29,303.57 425,303.57 364.29,364.28" fill="#86bcb3"/><rect x="425" y="303.57" width="60.71" height="60.71" fill="#61adae"/><g transform="translate(425,303.57) scale(3.0355) rotate(0)"><path d="M10 0H20L0 20V10L10 0Z" fill="#84b0a9"/><path d="M20 10V20H10L20 10Z" fill="#84b0a9"/></g><rect x="485.71" y="303.57" width="60.71" height="60.71" fill="#87c7bd"/><polygon points="546.42,303.57 546.42,364.28 485.71,364.28" fill="#788585"/><rect x="546.43" y="303.57" width="60.71" height="60.71" fill="#3deaed"/><g transform="translate(546.43,303.57) scale(3.0355) rotate(0)"><path d="M10 0H20L0 20V10L10 0Z" fill="#4eced0"/><path d="M20 10V20H10L20 10Z" fill="#4eced0"/></g><rect x="607.14" y="303.57" width="60.71" height="60.71" fill="#4fccce"/><polygon points="607.14,303.57 667.85,364.28 607.14,364.28" fill="#49d6d8"/><rect x="0" y="364.29" width="60.71" height="60.71" fill="#5bb8b9"/><polygon points="0,364.29 60.71,364.29 0,425" fill="#86bab1"/><rect x="60.71" y="364.29" width="60.71" height="60.71" fill="#5fb1b2"/><polygon points="60.71,364.29 121.42,364.29 121.42,425" fill="#5bb8b9"/><rect x="121.43" y="364.29" width="60.71" height="60.71" fill="#8adbce"/><g transform="translate(121.43,364.29) scale(3.0355) rotate(0)"><path d="M10 0H20L0 20V10L10 0Z" fill="#86bab1"/><path d="M20 10V20H10L20 10Z" fill="#86bab1"/></g><rect x="182.14" y="364.29" width="60.71" height="60.71" fill="#84ada6"/><polygon points="182.14,364.29 242.85,425 182.14,425" fill="#83a6a0"/><rect x="242.86" y="364.29" width="60.71" height="60.71" fill="#7e8180"/><g transform="translate(242.86,364.29) scale(3.0355) rotate(0)"><path d="M10 0H20L0 20V10L10 0Z" fill="#7e8281"/><path d="M20 10V20H10L20 10Z" fill="#7e8281"/></g><rect x="303.57" y="364.29" width="60.71" height="60.71" fill="#85b4ac"/><g transform="translate(303.57,364.29) scale(3.0355) rotate(0)"><path d="M10 0H20L0 20V10L10 0Z" fill="#6c9b9c"/><path d="M20 10V20H10L20 10Z" fill="#6c9b9c"/></g><rect x="364.29" y="364.29" width="60.71" height="60.71" fill="#88ccc1"/><g transform="translate(364.29,364.29) scale(3.0355) rotate(0)"><path d="M10 0H20L0 20V10L10 0Z" fill="#3ee8eb"/><path d="M20 10V20H10L20 10Z" fill="#3ee8eb"/></g><rect x="425" y="364.29" width="60.71" height="60.71" fill="#54c3c4"/><g transform="translate(425,364.29) scale(3.0355) rotate(0)"><path d="M10 0H20L0 20V10L10 0Z" fill="#6e9798"/><path d="M20 10V20H10L20 10Z" fill="#6e9798"/></g><rect x="485.71" y="364.29" width="60.71" height="60.71" fill="#778788"/><g transform="translate(485.71,364.29) scale(3.0355) rotate(0)"><path d="M10 0H20L0 20V10L10 0Z" fill="#88cec3"/><path d="M20 10V20H10L20 10Z" fill="#88cec3"/></g><rect x="546.43" y="364.29" width="60.71" height="60.71" fill="#4fccce"/><polygon points="546.43,364.29 607.14,364.29 546.43,425" fill="#83a5a0"/><rect x="607.14" y="364.29" width="60.71" height="60.71" fill="#5fb1b2"/><g transform="translate(607.14,364.29) scale(3.0355) rotate(0)"><path d="M10 0H20L0 20V10L10 0Z" fill="#87c4ba"/><path d="M20 10V20H10L20 10Z" fill="#87c4ba"/></g></g></svg>