<?xml version="1.0" standalone="no"?><svg xmlns:xlink="http://www.w3.org/1999/xlink" xmlns="http://www.w3.org/2000/svg" viewBox="0 0 1000 636.3761597019662" preserveAspectRatio="xMaxYMax slice"><g transform="scale(1.4973556698869794)"><rect x="0" y="0" width="667.8571428571429" height="425" fill="#698cc9"/><rect x="0" y="0" width="60.71" height="60.71" fill="#6183cd"/><polygon points="0,0 60.71,0 60.71,60.71" fill="#3d5ae0"/><rect x="60.71" y="0" width="60.71" height="60.71" fill="#92a4dd"/><polygon points="121.42,0 121.42,60.71 60.71,60.71" fill="#819ad4"/><rect x="121.43" y="0" width="60.71" height="60.71" fill="#6284cd"/><polygon points="121.43,0 182.14000000000001,60.71 121.43,60.71" fill="#849cd6"/><rect x="182.14" y="0" width="60.71" height="60.71" fill="#4d6cd8"/><polygon points="182.14,0 242.85,0 182.14,60.71" fill="#7795d0"/><rect x="242.86" y="0" width="60.71" height="60.71" fill="#95a6de"/><polygon points="303.57,0 303.57,60.71 242.86,60.71" fill="#7c98d2"/><rect x="303.57" y="0" width="60.71" height="60.71" fill="#9aa9e0"/><polygon points="303.57,0 364.28,0 303.57,60.71" fill="#5676d3"/><rect x="364.29" y="0" width="60.71" height="60.71" fill="#5a7bd1"/><polygon points="364.29,0 425,60.71 364.29,60.71" fill="#7191cd"/><rect x="425" y="0" width="60.71" height="60.71" fill="#7c97d2"/><polygon points="485.71,0 485.71,60.71 425,60.71" fill="#829bd5"/><rect x="485.71" y="0" width="60.71" height="60.71" fill="#344fe5"/><polygon points="546.42,0 546.42,60.71 485.71,60.71" fill="#99a9e0"/><rect x="546.43" y="0" width="60.71" height="60.71" fill="#90a3dc"/><polygon points="607.14,0 607.14,60.71 546.43,60.71" fill="#415ede"/><rect x="607.14" y="0" width="60.71" height="60.71" fill="#5879d2"/><polygon points="667.85,0 667.85,60.71 607.14,60.71" fill="#6385cc"/><rect x="0" y="60.71" width="60.71" height="60.71" fill="#6689ca"/><polygon points="0,60.71 60.71,121.42 0,121.42" fill="#6f8fcc"/><rect x="60.71" y="60.71" width="60.71" height="60.71" fill="#4360dd"/><polygon points="121.42,60.71 121.42,121.42 60.71,121.42" fill="#5676d3"/><rect x="121.43" y="60.71" width="60.71" height="60.71" fill="#2c46e9"/><polygon points="121.43,60.71 182.14000000000001,60.71 121.43,121.42" fill="#7694cf"/><rect x="182.14" y="60.71" width="60.71" height="60.71" fill="#889ed8"/><polygon points="182.14,60.71 242.85,60.71 182.14,121.42" fill="#889ed8"/><rect x="242.86" y="60.71" width="60.71" height="60.71" fill="#96a7df"/><polygon points="242.86,60.71 303.57,60.71 303.57,121.42" fill="#4968da"/><rect x="303.57" y="60.71" width="60.71" height="60.71" fill="#98a8e0"/><polygon points="303.57,60.71 364.28,121.42 303.57,121.42" fill="#4361dd"/><rect x="364.29" y="60.71" width="60.71" height="60.71" fill="#698cc9"/><polygon points="364.29,60.71 425,121.42 364.29,121.42" fill="#94a5dd"/><rect x="425" y="60.71" width="60.71" height="60.71" fill="#849cd6"/><polygon points="485.71,60.71 485.71,121.42 425,121.42" fill="#8ba0d9"/><rect x="485.71" y="60.71" width="60.71" height="60.71" fill="#2740ec"/><polygon points="485.71,60.71 546.42,60.71 546.42,121.42" fill="#3550e5"/><rect x="546.43" y="60.71" width="60.71" height="60.71" fill="#3d5ae0"/><polygon points="546.43,60.71 607.14,60.71 607.14,121.42" fill="#7995d1"/><rect x="607.14" y="60.71" width="60.71" height="60.71" fill="#405ddf"/><polygon points="667.85,60.71 667.85,121.42 607.14,121.42" fill="#324ce7"/><rect x="0" y="121.43" width="60.71" height="60.71" fill="#2c46ea"/><polygon points="0,121.43 60.71,121.43 0,182.14000000000001" fill="#5e7fcf"/><rect x="60.71" y="121.43" width="60.71" height="60.71" fill="#3450e5"/><polygon points="60.71,121.43 121.42,121.43 121.42,182.14000000000001" fill="#597ad2"/><rect x="121.43" y="121.43" width="60.71" height="60.71" fill="#94a6de"/><polygon points="121.43,121.43 182.14000000000001,121.43 121.43,182.14000000000001" fill="#7493cf"/><rect x="182.14" y="121.43" width="60.71" height="60.71" fill="#6486cc"/><polygon points="182.14,121.43 242.85,121.43 182.14,182.14000000000001" fill="#869dd7"/><rect x="242.86" y="121.43" width="60.71" height="60.71" fill="#5f80ce"/><polygon points="303.57,121.43 303.57,182.14000000000001 242.86,182.14000000000001" fill="#849cd6"/><rect x="303.57" y="121.43" width="60.71" height="60.71" fill="#7794d0"/><polygon points="303.57,121.43 364.28,121.43 364.28,182.14000000000001" fill="#6d8fcb"/><rect x="364.29" y="121.43" width="60.71" height="60.71" fill="#6486cc"/><polygon points="364.29,121.43 425,182.14000000000001 364.29,182.14000000000001" fill="#405ddf"/><rect x="425" y="121.43" width="60.71" height="60.71" fill="#8099d4"/><polygon points="485.71,121.43 485.71,182.14000000000001 425,182.14000000000001" fill="#2842ec"/><rect x="485.71" y="121.43" width="60.71" height="60.71" fill="#5271d5"/><polygon points="485.71,121.43 546.42,121.43 485.71,182.14000000000001" fill="#7191cd"/><rect x="546.43" y="121.43" width="60.71" height="60.71" fill="#92a4dc"/><polygon points="546.43,121.43 607.14,121.43 607.14,182.14000000000001" fill="#4f6ed7"/><rect x="607.14" y="121.43" width="60.71" height="60.71" fill="#4d6cd8"/><polygon points="667.85,121.43 667.85,182.14000000000001 607.14,182.14000000000001" fill="#5373d5"/><rect x="0" y="182.14" width="60.71" height="60.71" fill="#2038f0"/><polygon points="0,182.14 60.71,182.14 0,242.85" fill="#889fd8"/><rect x="60.71" y="182.14" width="60.71" height="60.71" fill="#9baae1"/><polygon points="60.71,182.14 121.42,182.14 121.42,242.85" fill="#3c59e1"/><rect x="121.43" y="182.14" width="60.71" height="60.71" fill="#7694cf"/><polygon points="121.43,182.14 182.14000000000001,182.14 121.43,242.85" fill="#4a69d9"/><rect x="182.14" y="182.14" width="60.71" height="60.71" fill="#7593cf"/><polygon points="182.14,182.14 242.85,182.14 182.14,242.85" fill="#314ce7"/><rect x="242.86" y="182.14" width="60.71" height="60.71" fill="#91a4dc"/><polygon points="303.57,182.14 303.57,242.85 242.86,242.85" fill="#899fd8"/><rect x="303.57" y="182.14" width="60.71" height="60.71" fill="#2f4ae8"/><polygon points="303.57,182.14 364.28,182.14 303.57,242.85" fill="#2d47e9"/><rect x="364.29" y="182.14" width="60.71" height="60.71" fill="#7996d1"/><polygon points="364.29,182.14 425,182.14 425,242.85" fill="#8fa3dc"/><rect x="425" y="182.14" width="60.71" height="60.71" fill="#869dd7"/><polygon points="485.71,182.14 485.71,242.85 425,242.85" fill="#2038f0"/><rect x="485.71" y="182.14" width="60.71" height="60.71" fill="#2943eb"/><polygon points="546.42,182.14 546.42,242.85 485.71,242.85" fill="#92a5dd"/><rect x="546.43" y="182.14" width="60.71" height="60.71" fill="#95a6de"/><polygon points="546.43,182.14 607.14,182.14 607.14,242.85" fill="#5171d6"/><rect x="607.14" y="182.14" width="60.71" height="60.71" fill="#2d47e9"/><polygon points="607.14,182.14 667.85,182.14 667.85,242.85" fill="#5f81ce"/><rect x="0" y="242.86" width="60.71" height="60.71" fill="#4360dd"/><polygon points="0,242.86 60.71,242.86 0,303.57" fill="#6385cc"/><rect x="60.71" y="242.86" width="60.71" height="60.71" fill="#6c8eca"/><polygon points="60.71,242.86 121.42,242.86 60.71,303.57" fill="#5f81ce"/><rect x="121.43" y="242.86" width="60.71" height="60.71" fill="#3a57e2"/><polygon points="182.14000000000001,242.86 182.14000000000001,303.57 121.43,303.57" fill="#8da1da"/><rect x="182.14" y="242.86" width="60.71" height="60.71" fill="#2841ec"/><polygon points="182.14,242.86 242.85,242.86 242.85,303.57" fill="#7392ce"/><rect x="242.86" y="242.86" width="60.71" height="60.71" fill="#4f6ed7"/><polygon points="242.86,242.86 303.57,242.86 242.86,303.57" fill="#95a6de"/><rect x="303.57" y="242.86" width="60.71" height="60.71" fill="#6c8ecb"/><polygon points="303.57,242.86 364.28,242.86 303.57,303.57" fill="#4c6bd9"/><rect x="364.29" y="242.86" width="60.71" height="60.71" fill="#3652e4"/><polygon points="425,242.86 425,303.57 364.29,303.57" fill="#334ee6"/><rect x="425" y="242.86" width="60.71" height="60.71" fill="#3652e4"/><polygon points="425,242.86 485.71,242.86 425,303.57" fill="#2a43eb"/><rect x="485.71" y="242.86" width="60.71" height="60.71" fill="#97a7df"/><polygon points="485.71,242.86 546.42,242.86 546.42,303.57" fill="#7493cf"/><rect x="546.43" y="242.86" width="60.71" height="60.71" fill="#8aa0d9"/><polygon points="546.43,242.86 607.14,303.57 546.43,303.57" fill="#90a3dc"/><rect x="607.14" y="242.86" width="60.71" height="60.71" fill="#2740ec"/><polygon points="607.14,242.86 667.85,303.57 607.14,303.57" fill="#334ee6"/><rect x="0" y="303.57" width="60.71" height="60.71" fill="#6c8eca"/><polygon points="60.71,303.57 60.71,364.28 0,364.28" fill="#899fd8"/><rect x="60.71" y="303.57" width="60.71" height="60.71" fill="#334ee6"/><polygon points="60.71,303.57 121.42,364.28 60.71,364.28" fill="#213aef"/><rect x="121.43" y="303.57" width="60.71" height="60.71" fill="#3d59e1"/><polygon points="121.43,303.57 182.14000000000001,303.57 121.43,364.28" fill="#2e48e8"/><rect x="182.14" y="303.57" width="60.71" height="60.71" fill="#95a6de"/><polygon points="242.85,303.57 242.85,364.28 182.14,364.28" fill="#96a7df"/><rect x="242.86" y="303.57" width="60.71" height="60.71" fill="#7a96d1"/><polygon points="303.57,303.57 303.57,364.28 242.86,364.28" fill="#3e5ae0"/><rect x="303.57" y="303.57" width="60.71" height="60.71" fill="#4f6ed7"/><polygon points="303.57,303.57 364.28,303.57 303.57,364.28" fill="#4967da"/><rect x="364.29" y="303.57" width="60.71" height="60.71" fill="#98a8e0"/><polygon points="364.29,303.57 425,303.57 364.29,364.28" fill="#4a69d9"/><rect x="425" y="303.57" width="60.71" height="60.71" fill="#8fa3db"/><polygon points="485.71,303.57 485.71,364.28 425,364.28" fill="#324de6"/><rect x="485.71" y="303.57" width="60.71" height="60.71" fill="#6688cb"/><polygon points="485.71,303.57 546.42,364.28 485.71,364.28" fill="#6081ce"/><rect x="546.43" y="303.57" width="60.71" height="60.71" fill="#3b58e1"/><polygon points="546.43,303.57 607.14,303.57 607.14,364.28" fill="#7c98d2"/><rect x="607.14" y="303.57" width="60.71" height="60.71" fill="#304be7"/><polygon points="607.14,303.57 667.85,364.28 607.14,364.28" fill="#4c6bd8"/><rect x="0" y="364.29" width="60.71" height="60.71" fill="#2e49e8"/><polygon points="60.71,364.29 60.71,425 0,425" fill="#5878d2"/><rect x="60.71" y="364.29" width="60.71" height="60.71" fill="#7c98d2"/><polygon points="60.71,364.29 121.42,425 60.71,425" fill="#869dd7"/><rect x="121.43" y="364.29" width="60.71" height="60.71" fill="#6081ce"/><polygon points="182.14000000000001,364.29 182.14000000000001,425 121.43,425" fill="#253eed"/><rect x="182.14" y="364.29" width="60.71" height="60.71" fill="#2842ec"/><polygon points="182.14,364.29 242.85,425 182.14,425" fill="#8aa0d9"/><rect x="242.86" y="364.29" width="60.71" height="60.71" fill="#506fd7"/><polygon points="242.86,364.29 303.57,364.29 242.86,425" fill="#6789ca"/><rect x="303.57" y="364.29" width="60.71" height="60.71" fill="#7090cd"/><polygon points="364.28,364.29 364.28,425 303.57,425" fill="#849cd6"/><rect x="364.29" y="364.29" width="60.71" height="60.71" fill="#4a69d9"/><polygon points="364.29,364.29 425,364.29 364.29,425" fill="#7493ce"/><rect x="425" y="364.29" width="60.71" height="60.71" fill="#8a9fd9"/><polygon points="485.71,364.29 485.71,425 425,425" fill="#3b57e1"/><rect x="485.71" y="364.29" width="60.71" height="60.71" fill="#99a9e0"/><polygon points="485.71,364.29 546.42,364.29 546.42,425" fill="#7392ce"/><rect x="546.43" y="364.29" width="60.71" height="60.71" fill="#7a96d1"/><polygon points="546.43,364.29 607.14,364.29 607.14,425" fill="#92a5dd"/><rect x="607.14" y="364.29" width="60.71" height="60.71" fill="#899fd8"/><polygon points="607.14,364.29 667.85,364.29 667.85,425" fill="#5f80ce"/></g></svg>